<svg xmlns="http://www.w3.org/2000/svg" xmlns:xlink="http://www.w3.org/1999/xlink" width="375" viewBox="0 0 375 375" height="375" version="1.0"><defs><g id="a"><path d="M 98.3125 -151.046875 C 107.8125 -151.046875 116.003906 -150.367188 122.890625 -149.015625 C 129.785156 -147.671875 136.554688 -145.414062 143.203125 -142.25 C 144.304688 -141.613281 144.976562 -141.019531 145.21875 -140.46875 C 145.457031 -139.914062 145.65625 -138.691406 145.8125 -136.796875 L 148.90625 -107.8125 C 148.90625 -107.34375 148.46875 -107.023438 147.59375 -106.859375 C 146.726562 -106.703125 146.210938 -106.941406 146.046875 -107.578125 C 138.296875 -134.015625 121.910156 -147.234375 96.890625 -147.234375 C 84.066406 -147.234375 72.742188 -144.304688 62.921875 -138.453125 C 53.109375 -132.597656 45.472656 -124.242188 40.015625 -113.390625 C 34.554688 -102.546875 31.828125 -89.921875 31.828125 -75.515625 C 31.828125 -61.585938 34.796875 -48.921875 40.734375 -37.515625 C 46.671875 -26.117188 54.703125 -17.175781 64.828125 -10.6875 C 74.960938 -4.195312 86.046875 -0.953125 98.078125 -0.953125 C 110.585938 -0.953125 120.835938 -4.078125 128.828125 -10.328125 C 136.828125 -16.585938 143.203125 -26.285156 147.953125 -39.421875 C 148.109375 -39.898438 148.582031 -40.054688 149.375 -39.890625 C 150.164062 -39.734375 150.5625 -39.5 150.5625 -39.1875 L 148.1875 -12.59375 C 147.875 -10.6875 147.597656 -9.457031 147.359375 -8.90625 C 147.117188 -8.351562 146.445312 -7.757812 145.34375 -7.125 C 137.269531 -3.320312 129.585938 -0.671875 122.296875 0.828125 C 115.015625 2.335938 106.863281 3.09375 97.84375 3.09375 C 81.21875 3.09375 66.375 -0.191406 53.3125 -6.765625 C 40.25 -13.335938 30.035156 -22.519531 22.671875 -34.3125 C 15.316406 -46.113281 11.640625 -59.613281 11.640625 -74.8125 C 11.640625 -89.6875 15.359375 -102.898438 22.796875 -114.453125 C 30.234375 -126.015625 40.5625 -135.003906 53.78125 -141.421875 C 67.007812 -147.835938 81.851562 -151.046875 98.3125 -151.046875 Z M 98.3125 -151.046875"/></g><g id="b"><path d="M 46.8125 -71.921875 C 51.332031 -71.921875 55.234375 -71.597656 58.515625 -70.953125 C 61.796875 -70.316406 65.019531 -69.242188 68.1875 -67.734375 C 68.71875 -67.429688 69.035156 -67.144531 69.140625 -66.875 C 69.253906 -66.613281 69.351562 -66.035156 69.4375 -65.140625 L 70.90625 -51.34375 C 70.90625 -51.113281 70.695312 -50.957031 70.28125 -50.875 C 69.863281 -50.800781 69.617188 -50.914062 69.546875 -51.21875 C 65.847656 -63.8125 58.046875 -70.109375 46.140625 -70.109375 C 40.023438 -70.109375 34.628906 -68.710938 29.953125 -65.921875 C 25.285156 -63.128906 21.648438 -59.148438 19.046875 -53.984375 C 16.453125 -48.828125 15.15625 -42.816406 15.15625 -35.953125 C 15.15625 -29.328125 16.566406 -23.296875 19.390625 -17.859375 C 22.222656 -12.429688 26.050781 -8.171875 30.875 -5.078125 C 35.695312 -1.992188 40.972656 -0.453125 46.703125 -0.453125 C 52.660156 -0.453125 57.539062 -1.941406 61.34375 -4.921875 C 65.15625 -7.898438 68.191406 -12.515625 70.453125 -18.765625 C 70.523438 -18.992188 70.75 -19.070312 71.125 -19 C 71.5 -18.925781 71.6875 -18.8125 71.6875 -18.65625 L 70.5625 -6 C 70.40625 -5.09375 70.269531 -4.503906 70.15625 -4.234375 C 70.050781 -3.972656 69.734375 -3.691406 69.203125 -3.390625 C 65.359375 -1.578125 61.703125 -0.316406 58.234375 0.390625 C 54.765625 1.109375 50.882812 1.46875 46.59375 1.46875 C 38.675781 1.46875 31.609375 -0.09375 25.390625 -3.21875 C 19.171875 -6.351562 14.304688 -10.726562 10.796875 -16.34375 C 7.296875 -21.957031 5.546875 -28.382812 5.546875 -35.625 C 5.546875 -42.707031 7.316406 -49 10.859375 -54.5 C 14.398438 -60.007812 19.316406 -64.289062 25.609375 -67.34375 C 31.898438 -70.394531 38.96875 -71.921875 46.8125 -71.921875 Z M 46.8125 -71.921875"/></g></defs><g fill="#2B2B2B"><use x="106.161" y="262.818" xmlns:xlink="http://www.w3.org/1999/xlink" xlink:href="#a" xlink:type="simple" xlink:actuate="onLoad" xlink:show="embed"/></g><g fill="#2B2B2B"><use x="179.857" y="224.656" xmlns:xlink="http://www.w3.org/1999/xlink" xlink:href="#b" xlink:type="simple" xlink:actuate="onLoad" xlink:show="embed"/></g></svg>