<svg xmlns="http://www.w3.org/2000/svg" xmlns:xlink="http://www.w3.org/1999/xlink" width="1125" viewBox="0 0 1125 1125" height="1125" version="1.0"><defs><g id="a"><path d="M -3.84375 -30.265625 C -5.488281 -43.484375 -2.675781 -57.695312 4.59375 -72.90625 C 11.875 -88.125 21.613281 -101.9375 33.8125 -114.34375 C 46.019531 -126.75 59.972656 -137.4375 75.671875 -146.40625 C 91.378906 -155.382812 106.539062 -160.859375 121.15625 -162.828125 C 129.539062 -163.953125 137.546875 -163.257812 145.171875 -160.75 C 152.804688 -158.238281 157.09375 -153.46875 158.03125 -146.4375 C 158.976562 -139.40625 155.992188 -131.269531 149.078125 -122.03125 C 142.160156 -112.789062 133.515625 -104.546875 123.140625 -97.296875 C 112.765625 -90.054688 103.394531 -85.875 95.03125 -84.75 C 91.195312 -84.226562 87.078125 -84.753906 82.671875 -86.328125 C 78.273438 -87.910156 75.816406 -90.613281 75.296875 -94.4375 C 75.015625 -96.570312 76.46875 -98.648438 79.65625 -100.671875 C 91.082031 -107.117188 99.539062 -113.023438 105.03125 -118.390625 C 106.113281 -119.984375 106.972656 -120.820312 107.609375 -120.90625 C 108.242188 -121 108.640625 -120.476562 108.796875 -119.34375 C 109.054688 -117.34375 106.957031 -114.671875 102.5 -111.328125 C 99.4375 -108.316406 97.925781 -106.664062 97.96875 -106.375 C 98.007812 -106.09375 98.101562 -105.960938 98.25 -105.984375 C 101.09375 -106.367188 109.015625 -113 122.015625 -125.875 C 135.023438 -138.757812 141.320312 -146.757812 140.90625 -149.875 C 140.632812 -151.863281 138.578125 -152.597656 134.734375 -152.078125 C 121.109375 -150.242188 107.703125 -145.148438 94.515625 -136.796875 C 81.335938 -128.453125 69.972656 -118.6875 60.421875 -107.5 C 50.867188 -96.320312 42.425781 -84.710938 35.09375 -72.671875 C 27.757812 -60.640625 22.375 -49.65625 18.9375 -39.71875 C 15.5 -29.789062 14.125 -22.269531 14.8125 -17.15625 C 15.226562 -14.039062 16.929688 -12.679688 19.921875 -13.078125 C 22.472656 -13.421875 27.425781 -15.242188 34.78125 -18.546875 C 42.132812 -21.847656 52.628906 -27.882812 66.265625 -36.65625 C 79.898438 -45.425781 92.820312 -55.472656 105.03125 -66.796875 C 105.914062 -67.773438 106.535156 -68.285156 106.890625 -68.328125 C 107.242188 -68.378906 107.457031 -68.125 107.53125 -67.5625 C 107.601562 -67 106.679688 -64.421875 104.765625 -59.828125 C 102.859375 -55.242188 99.796875 -49.554688 95.578125 -42.765625 C 91.367188 -35.984375 86.453125 -29.285156 80.828125 -22.671875 C 75.210938 -16.066406 68.175781 -10.097656 59.71875 -4.765625 C 51.269531 0.554688 43.25 3.726562 35.65625 4.75 C 28.0625 5.769531 21.914062 5.21875 17.21875 3.09375 C 12.519531 0.976562 8.914062 -1.925781 6.40625 -5.625 C 1.21875 -13.007812 -1.945312 -19.882812 -3.09375 -26.25 Z M -3.84375 -30.265625"/></g><g id="b"><path d="M 10.875 -11.015625 C 15.414062 -11.617188 20.617188 -15.347656 26.484375 -22.203125 C 32.359375 -29.054688 35.285156 -33.640625 35.265625 -35.953125 C 33.378906 -37.140625 31.222656 -39.488281 28.796875 -43 C 26.367188 -46.507812 25.085938 -48.253906 24.953125 -48.234375 C 21.097656 -43.515625 17.828125 -38.234375 15.140625 -32.390625 C 10.984375 -22.578125 9.132812 -15.96875 9.59375 -12.5625 C 9.738281 -11.425781 10.164062 -10.910156 10.875 -11.015625 Z M 49.828125 -69.34375 C 48.421875 -69.15625 45.773438 -66.5625 41.890625 -61.5625 C 38.015625 -56.5625 36.191406 -53.210938 36.421875 -51.515625 C 36.472656 -51.085938 37.007812 -50.289062 38.03125 -49.125 C 39.0625 -47.957031 39.789062 -47.398438 40.21875 -47.453125 C 42.632812 -47.773438 44.972656 -51.050781 47.234375 -57.28125 C 49.503906 -63.519531 50.578125 -67.097656 50.453125 -68.015625 C 50.328125 -68.941406 50.117188 -69.382812 49.828125 -69.34375 Z M 53.96875 -41.9375 C 57.945312 -42.46875 63.832031 -45.710938 71.625 -51.671875 C 79.414062 -57.640625 86.1875 -63.46875 91.9375 -69.15625 L 100.5 -77.890625 C 101.914062 -77.066406 102.71875 -75.945312 102.90625 -74.53125 C 103.09375 -73.113281 102.625 -71.75 101.5 -70.4375 C 81 -45.582031 64.71875 -32.34375 52.65625 -30.71875 C 51.8125 -30.601562 50.519531 -30.566406 48.78125 -30.609375 C 35.238281 -9.859375 22.71875 1.285156 11.21875 2.828125 C 3.394531 2.722656 -1.789062 0.675781 -4.34375 -3.3125 C -5.769531 -5.289062 -6.703125 -7.910156 -7.140625 -11.171875 C -8.398438 -20.535156 -4.507812 -32.4375 4.53125 -46.875 C 13.570312 -61.320312 25.84375 -72.695312 41.34375 -81 C 42.757812 -81.1875 43.863281 -81.003906 44.65625 -80.453125 C 45.457031 -79.910156 46.144531 -79.644531 46.71875 -79.65625 C 47.300781 -79.664062 48.007812 -80.050781 48.84375 -80.8125 C 49.675781 -81.570312 50.867188 -82.09375 52.421875 -82.375 C 53.984375 -82.65625 55.738281 -81.988281 57.6875 -80.375 C 60.207031 -78.832031 61.648438 -76.71875 62.015625 -74.03125 C 63.078125 -66.082031 60.394531 -55.382812 53.96875 -41.9375 Z M 53.96875 -41.9375"/></g><g id="c"><path d="M 41.65625 -67.375 L 65.765625 -70.1875 C 72.015625 -71.03125 78.09375 -72.066406 84 -73.296875 C 84.9375 -73.847656 85.898438 -74.191406 86.890625 -74.328125 C 90.867188 -74.867188 94.289062 -73.085938 97.15625 -68.984375 C 98.476562 -67.734375 99.238281 -66.394531 99.4375 -64.96875 C 99.894531 -61.5625 98.675781 -59.300781 95.78125 -58.1875 C 65.757812 -54.726562 48.113281 -52.710938 42.84375 -52.140625 C 41.757812 -51.566406 40.753906 -51.21875 39.828125 -51.09375 C 38.910156 -50.96875 38.285156 -51.0625 37.953125 -51.375 C 37.628906 -51.695312 37.375 -52.566406 37.1875 -53.984375 L 37.671875 -66.40625 C 37.921875 -66.726562 39.25 -67.050781 41.65625 -67.375 Z M 41.65625 -67.375"/></g><g id="d"><path d="M 80.578125 -77.8125 C 81.128906 -72.675781 78.648438 -67.210938 73.140625 -61.421875 C 67.628906 -55.628906 60.472656 -52.140625 51.671875 -50.953125 C 47.984375 -50.453125 45.992188 -51.265625 45.703125 -53.390625 C 45.585938 -54.253906 46.140625 -54.984375 47.359375 -55.578125 C 55.210938 -61.691406 60.0625 -66.460938 61.90625 -69.890625 C 62.113281 -70.503906 62.171875 -71.160156 62.078125 -71.859375 C 61.984375 -72.566406 61.582031 -72.867188 60.875 -72.765625 C 49.039062 -69.453125 38.429688 -61.3125 29.046875 -48.34375 C 19.660156 -35.375 15.394531 -25.691406 16.25 -19.296875 C 16.65625 -16.316406 17.992188 -14.984375 20.265625 -15.296875 C 30.773438 -16.703125 41.4375 -21.238281 52.25 -28.90625 C 63.0625 -36.582031 78.867188 -50.128906 99.671875 -69.546875 C 101.085938 -70.890625 103.238281 -72.910156 106.125 -75.609375 C 109.007812 -78.316406 110.710938 -79.921875 111.234375 -80.421875 C 112.628906 -79.597656 113.421875 -78.472656 113.609375 -77.046875 C 113.804688 -75.628906 113.347656 -74.269531 112.234375 -72.96875 C 106.078125 -64.914062 97.953125 -55.734375 87.859375 -45.421875 C 77.765625 -35.109375 65.9375 -25.023438 52.375 -15.171875 C 38.8125 -5.328125 27.414062 0.210938 18.1875 1.453125 C 7.25 2.921875 1 -2.160156 -0.5625 -13.796875 C -1.65625 -21.890625 -0.0234375 -30.164062 4.328125 -38.625 C 8.691406 -47.082031 14.421875 -54.460938 21.515625 -60.765625 C 28.617188 -67.078125 36.210938 -72.398438 44.296875 -76.734375 C 52.390625 -81.066406 59.023438 -83.582031 64.203125 -84.28125 C 69.378906 -84.976562 73.195312 -84.769531 75.65625 -83.65625 C 78.125 -82.539062 79.523438 -81.285156 79.859375 -79.890625 Z M 80.578125 -77.8125"/></g><g id="e"><path d="M 2.515625 -40.875 C 9.609375 -47.320312 16.988281 -54.238281 24.65625 -61.625 C 19.695312 -64.132812 16.375 -66.796875 14.6875 -69.609375 C 14.132812 -70.546875 13.832031 -71.222656 13.78125 -71.640625 C 13.394531 -74.484375 14.0625 -76.488281 15.78125 -77.65625 C 17.5 -78.832031 20.414062 -79.695312 24.53125 -80.25 C 26.09375 -80.457031 30.960938 -79.160156 39.140625 -76.359375 C 47.316406 -73.554688 52.4375 -72.289062 54.5 -72.5625 C 56.5625 -72.84375 59.351562 -73.832031 62.875 -75.53125 C 66.40625 -77.238281 69.269531 -78.238281 71.46875 -78.53125 C 73.675781 -78.832031 75.34375 -78.554688 76.46875 -77.703125 C 80.65625 -73.492188 82.8125 -70.894531 82.9375 -69.90625 C 83.070312 -68.914062 82.71875 -68.035156 81.875 -67.265625 C 81.039062 -66.503906 78.40625 -64.09375 73.96875 -60.03125 C 69.539062 -55.96875 65.21875 -51.84375 61 -47.65625 C 56.789062 -43.476562 52.925781 -38.910156 49.40625 -33.953125 C 45.882812 -28.992188 44.304688 -25.171875 44.671875 -22.484375 C 44.722656 -22.054688 45.101562 -21.890625 45.8125 -21.984375 C 53.476562 -23.015625 77.222656 -42.03125 117.046875 -79.03125 C 118.035156 -79.164062 118.648438 -78.34375 118.890625 -76.5625 C 119.128906 -74.789062 114.34375 -67.9375 104.53125 -56 C 94.71875 -44.0625 83.425781 -32.140625 70.65625 -20.234375 C 57.882812 -8.328125 48.300781 -1.945312 41.90625 -1.09375 C 31.976562 0.25 26.34375 -4.046875 25 -13.984375 C 24.28125 -19.367188 25.390625 -24.828125 28.328125 -30.359375 C 31.265625 -35.890625 37.972656 -43.691406 48.453125 -53.765625 C 46.054688 -53.441406 42.71875 -53.609375 38.4375 -54.265625 C 34.15625 -54.921875 31.332031 -56.023438 29.96875 -57.578125 C 26.71875 -53.816406 21.066406 -47.488281 13.015625 -38.59375 C 11.109375 -36.75 8.445312 -35.597656 5.03125 -35.140625 C 1.625 -34.679688 -0.148438 -34.984375 -0.296875 -36.046875 C -0.441406 -37.117188 0.492188 -38.726562 2.515625 -40.875 Z M 2.515625 -40.875"/></g><g id="f"><path d="M 57.359375 -73.171875 C 53.671875 -72.679688 47.9375 -68.046875 40.15625 -59.265625 C 32.375 -50.484375 28.597656 -45.242188 28.828125 -43.546875 C 28.859375 -43.265625 29.085938 -43.15625 29.515625 -43.21875 C 32.640625 -43.632812 38.382812 -47.941406 46.75 -56.140625 C 55.113281 -64.347656 59.125 -69.726562 58.78125 -72.28125 C 58.6875 -72.988281 58.210938 -73.285156 57.359375 -73.171875 Z M 21.171875 1.046875 C 10.242188 2.515625 3.882812 -3.421875 2.09375 -16.765625 C 0.96875 -25.128906 3.421875 -34.519531 9.453125 -44.9375 C 15.492188 -55.363281 23.078125 -64.257812 32.203125 -71.625 C 41.328125 -79 49.71875 -83.203125 57.375 -84.234375 C 60.78125 -84.691406 64.117188 -83.765625 67.390625 -81.453125 C 70.671875 -79.148438 72.484375 -76.722656 72.828125 -74.171875 C 73.453125 -69.492188 70.828125 -63.757812 64.953125 -56.96875 C 59.078125 -50.1875 52.726562 -44.488281 45.90625 -39.875 C 39.082031 -35.269531 34.5 -32.8125 32.15625 -32.5 C 29.8125 -32.1875 27.925781 -33.019531 26.5 -35 C 25.882812 -35.351562 25.078125 -35.460938 24.078125 -35.328125 C 23.085938 -35.191406 21.707031 -33.085938 19.9375 -29.015625 C 18.164062 -24.941406 17.4375 -21.734375 17.75 -19.390625 C 18.0625 -17.046875 19.113281 -15.707031 20.90625 -15.375 C 31.695312 -16.832031 42.984375 -21.566406 54.765625 -29.578125 C 66.554688 -37.597656 82.519531 -51.054688 102.65625 -69.953125 C 104.0625 -71.296875 106.207031 -73.316406 109.09375 -76.015625 C 111.988281 -78.710938 113.691406 -80.3125 114.203125 -80.8125 C 115.609375 -80 116.40625 -78.878906 116.59375 -77.453125 C 116.789062 -76.035156 116.328125 -74.671875 115.203125 -73.359375 C 109.054688 -65.316406 100.9375 -56.140625 90.84375 -45.828125 C 80.75 -35.515625 68.914062 -25.429688 55.34375 -15.578125 C 41.78125 -5.734375 30.390625 -0.191406 21.171875 1.046875 Z M 21.171875 1.046875"/></g><g id="g"><path d="M 36.6875 -14.03125 L 36.5625 -27.890625 C 36.5 -28.328125 36.363281 -28.53125 36.15625 -28.5 C 35.945312 -28.46875 35.597656 -28.128906 35.109375 -27.484375 C 33.523438 -25.242188 31.507812 -22.476562 29.0625 -19.1875 C 26.613281 -15.894531 22.273438 -11.335938 16.046875 -5.515625 C 9.828125 0.304688 4.585938 3.503906 0.328125 4.078125 C -0.390625 4.023438 -1.304688 3.894531 -2.421875 3.6875 C -3.535156 3.476562 -5.078125 2.492188 -7.046875 0.734375 C -9.015625 -1.015625 -10.25 -3.734375 -10.75 -7.421875 C -11.25 -11.117188 -9.207031 -17.140625 -4.625 -25.484375 C -0.0390625 -33.835938 5.660156 -42.191406 12.484375 -50.546875 C 19.304688 -58.910156 27.144531 -66.429688 36 -73.109375 C 44.863281 -79.796875 52.84375 -83.617188 59.9375 -84.578125 C 62.65625 -84.804688 65.046875 -83.175781 67.109375 -79.6875 C 68.328125 -81.300781 69.503906 -82.1875 70.640625 -82.34375 C 71.773438 -82.5 73.238281 -81.828125 75.03125 -80.328125 C 75.90625 -80.296875 76.816406 -79.945312 77.765625 -79.28125 C 78.722656 -78.625 79.296875 -77.582031 79.484375 -76.15625 C 79.679688 -74.738281 78.90625 -73.046875 77.15625 -71.078125 C 74.664062 -66.984375 71.742188 -62.328125 68.390625 -57.109375 C 65.046875 -51.890625 62.660156 -48.132812 61.234375 -45.84375 C 59.816406 -43.550781 58.359375 -41.007812 56.859375 -38.21875 C 54.328125 -33.394531 53.097656 -29.613281 53.171875 -26.875 C 66.710938 -35.78125 87.484375 -53.820312 115.484375 -81 C 116.878906 -80.175781 117.671875 -79.050781 117.859375 -77.625 C 118.054688 -76.207031 117.65625 -74.925781 116.65625 -73.78125 C 115.65625 -72.632812 114.429688 -71.238281 112.984375 -69.59375 C 111.546875 -67.957031 108.691406 -64.757812 104.421875 -60 C 100.148438 -55.238281 96.03125 -50.671875 92.0625 -46.296875 C 88.101562 -41.929688 83.554688 -37.054688 78.421875 -31.671875 C 73.296875 -26.296875 68.679688 -21.664062 64.578125 -17.78125 C 54.710938 -8.507812 48.425781 -3.691406 45.71875 -3.328125 C 43.019531 -2.972656 40.988281 -3.566406 39.625 -5.109375 C 38.257812 -6.660156 37.28125 -9.632812 36.6875 -14.03125 Z M 13.78125 -20.0625 C 15.476562 -20.289062 20.222656 -24.46875 28.015625 -32.59375 C 35.804688 -40.726562 43.140625 -48.796875 50.015625 -56.796875 L 60.53125 -68.84375 C 61.019531 -69.476562 61.25 -69.898438 61.21875 -70.109375 C 61.195312 -70.328125 60.972656 -70.410156 60.546875 -70.359375 C 55.148438 -69.628906 48.535156 -65.59375 40.703125 -58.25 C 32.878906 -50.914062 26.269531 -43.378906 20.875 -35.640625 C 15.488281 -27.910156 12.957031 -22.835938 13.28125 -20.421875 C 13.320312 -20.148438 13.488281 -20.03125 13.78125 -20.0625 Z M 13.78125 -20.0625"/></g><g id="h"><path d="M 84.5 -111.5 L 95.3125 -113.1875 C 109.363281 -115.070312 119.859375 -114.460938 126.796875 -111.359375 C 130.046875 -110.773438 131.773438 -109.703125 131.984375 -108.140625 C 132.128906 -107.003906 130.847656 -106.035156 128.140625 -105.234375 C 125.429688 -104.441406 116 -102.054688 99.84375 -98.078125 C 83.6875 -94.097656 72.578125 -91.554688 66.515625 -90.453125 C 63.847656 -89.953125 58.269531 -84.429688 49.78125 -73.890625 C 41.300781 -63.359375 33.40625 -51.960938 26.09375 -39.703125 C 18.78125 -27.453125 15.421875 -19.125 16.015625 -14.71875 C 16.109375 -14.007812 16.546875 -13.453125 17.328125 -13.046875 C 18.109375 -12.640625 19.03125 -12.507812 20.09375 -12.65625 C 21.15625 -12.800781 22.765625 -13.457031 24.921875 -14.625 C 49.734375 -34.144531 73.578125 -55.054688 96.453125 -77.359375 C 97.867188 -76.523438 98.671875 -75.398438 98.859375 -73.984375 C 99.046875 -72.566406 98.519531 -71.085938 97.28125 -69.546875 C 96.050781 -68.003906 94.222656 -65.769531 91.796875 -62.84375 C 89.378906 -59.925781 84.851562 -54.625 78.21875 -46.9375 C 71.59375 -39.257812 65.296875 -32.34375 59.328125 -26.1875 C 43.398438 -9.3125 32.035156 0.738281 25.234375 3.96875 C 22.773438 5.019531 19.804688 5.78125 16.328125 6.25 C 12.847656 6.71875 9.414062 5.375 6.03125 2.21875 C 2.644531 -0.9375 0.539062 -5.566406 -0.28125 -11.671875 C -1.101562 -17.773438 1.648438 -27.101562 7.984375 -39.65625 C 14.328125 -52.207031 23.5 -65.4375 35.5 -79.34375 C 36.644531 -80.507812 37.160156 -81.515625 37.046875 -82.359375 C 36.929688 -83.210938 35.382812 -83.4375 32.40625 -83.03125 L 19.03125 -80.8125 C 0.15625 -78.269531 -9.847656 -79.09375 -10.984375 -83.28125 C -15.492188 -83.53125 -17.863281 -84.507812 -18.09375 -86.21875 C -18.164062 -86.78125 -17.921875 -87.132812 -17.359375 -87.28125 C -16.804688 -87.4375 -16.320312 -87.578125 -15.90625 -87.703125 C -15.5 -87.835938 -14.804688 -88.039062 -13.828125 -88.3125 C -12.847656 -88.582031 -5.15625 -90.769531 9.25 -94.875 C 23.65625 -98.988281 40.125 -103.015625 58.65625 -106.953125 L 70.71875 -128.515625 C 71.34375 -130.328125 74.210938 -131.578125 79.328125 -132.265625 C 84.441406 -132.953125 87.140625 -132.234375 87.421875 -130.109375 C 87.523438 -129.398438 87.128906 -128.039062 86.234375 -126.03125 L 81.90625 -117.875 C 81.5 -115.5 81.296875 -113.738281 81.296875 -112.59375 C 81.429688 -111.601562 82.5 -111.238281 84.5 -111.5 Z M 84.5 -111.5"/></g></defs><g><use x="236.7" y="682.144" xmlns:xlink="http://www.w3.org/1999/xlink" xlink:href="#a" xlink:type="simple" xlink:actuate="onLoad" xlink:show="embed"/></g><g><use x="345.498" y="667.509" xmlns:xlink="http://www.w3.org/1999/xlink" xlink:href="#b" xlink:type="simple" xlink:actuate="onLoad" xlink:show="embed"/></g><g><use x="415.333" y="658.116" xmlns:xlink="http://www.w3.org/1999/xlink" xlink:href="#c" xlink:type="simple" xlink:actuate="onLoad" xlink:show="embed"/></g><g><use x="535.203" y="641.993" xmlns:xlink="http://www.w3.org/1999/xlink" xlink:href="#d" xlink:type="simple" xlink:actuate="onLoad" xlink:show="embed"/></g><g><use x="616.323" y="631.081" xmlns:xlink="http://www.w3.org/1999/xlink" xlink:href="#e" xlink:type="simple" xlink:actuate="onLoad" xlink:show="embed"/></g><g><use x="704.681" y="619.197" xmlns:xlink="http://www.w3.org/1999/xlink" xlink:href="#f" xlink:type="simple" xlink:actuate="onLoad" xlink:show="embed"/></g><g><use x="782.181" y="608.772" xmlns:xlink="http://www.w3.org/1999/xlink" xlink:href="#g" xlink:type="simple" xlink:actuate="onLoad" xlink:show="embed"/></g><g><use x="865.217" y="597.603" xmlns:xlink="http://www.w3.org/1999/xlink" xlink:href="#h" xlink:type="simple" xlink:actuate="onLoad" xlink:show="embed"/></g><g><use x="931.859" y="588.64" xmlns:xlink="http://www.w3.org/1999/xlink" xlink:href="#f" xlink:type="simple" xlink:actuate="onLoad" xlink:show="embed"/></g></svg>